Coordinates
version=1
nRows=13
nColumns=36
inDegrees=yes

Units are S.I. units (second, meters, Newtons, ...)
If the header above contains a line with 'inDegrees', this indicates whether rotational values are in degrees (yes) or radians (no).

endheader
time	pelvis_tilt	pelvis_list	pelvis_rotation	pelvis_tx	pelvis_ty	pelvis_tz	hip_flexion_r	hip_adduction_r	hip_rotation_r	knee_angle_r	knee_angle_r_beta	ankle_angle_r	subtalar_angle_r	mtp_angle_r	hip_flexion_l	hip_adduction_l	hip_rotation_l	knee_angle_l	knee_angle_l_beta	ankle_angle_l	subtalar_angle_l	mtp_angle_l	lumbar_extension	lumbar_bending	lumbar_rotation	arm_flex_r	arm_add_r	arm_rot_r	elbow_flex_r	pro_sup_r	arm_flex_l	arm_add_l	arm_rot_l	elbow_flex_l	pro_sup_l
      2.86666670	    -22.02199858	      1.08380718	     -1.41774815	      0.95475490	      0.64345351	     -0.59564223	     83.37666812	     -3.24730237	      4.82627376	     93.38619861	      1.62989664	     30.66699369	     -7.11283923	     -7.49999987	     83.98502831	    -14.04977054	      2.32525998	     90.69633395	      1.58294965	     31.60047835	     -5.23758419	     -7.49999987	    -35.85210637	     -0.49494513	      8.38900517	     79.49452437	    -20.91213937	     27.92202043	    103.27888731	     94.06110072	     72.98064753	    -13.41027908	     25.68327753	    113.25764447	     94.79413704
      2.88333330	    -24.18084053	      1.21330715	     -1.82532289	      0.95731593	      0.62871308	     -0.59557169	     87.07625023	     -3.24650693	      4.94752757	     95.98172050	      1.67519704	     32.17579391	     -6.42832578	     -7.49999987	     87.53810366	    -14.43517156	      2.72141952	     93.33037338	      1.62892231	     33.12310632	     -4.81702487	     -7.49999987	    -36.66269555	     -0.74755198	      8.88669786	     83.24618580	    -19.35511910	     29.12865772	    104.46910210	     93.39694279	     75.75680338	    -13.78504763	     26.36954592	    114.45400503	     94.35522505
      2.90000000	    -26.31394742	      1.32302893	     -1.91139468	      0.93959062	      0.61139461	     -0.59238033	     91.13930119	     -3.29836505	      4.91442682	     98.14986179	      1.71303825	     32.93547563	     -6.19592998	     -7.49999987	     91.56802142	    -14.74459846	      3.03340306	     95.62278866	      1.66893250	     33.44182251	     -5.48189535	     -7.49999987	    -37.03288521	     -0.93842496	      9.32614591	     88.15345615	    -18.09444598	     29.52163176	    103.19829142	     94.15643074	     80.50010550	    -12.95090504	     26.50456680	    113.19726150	     95.35926841
      2.91666670	    -28.59668687	      1.22748942	     -2.02847686	      0.93151960	      0.59049207	     -0.58137740	     95.66564889	     -3.07805522	      4.49636906	    100.40918088	      1.75247081	     33.41103631	     -5.77029960	     -7.49999987	     96.25824025	    -15.43634100	      3.70443443	     98.02704227	      1.71089464	     33.55397107	     -5.44553640	     -7.49999987	    -37.14611051	     -1.55120666	      9.96412405	     92.91025667	    -16.08506362	     28.78296959	    103.88551285	     95.02249684	     85.63232569	    -12.78601346	     25.84329578	    113.18151253	     96.35428913
      2.93333330	    -30.10809503	      0.72702945	     -2.28339438	      0.93940971	      0.58242587	     -0.58497301	     98.89164221	     -2.86905943	      3.65184887	    102.33628319	      1.78610509	     34.10877829	     -5.33713799	     -7.49999987	     99.89730291	    -16.10014382	      4.79239774	    100.14257665	      1.74781768	     33.43094929	     -5.78608993	     -7.49999987	    -37.78613480	     -1.72740640	     10.34737532	     96.17964022	    -15.42788076	     30.92376696	    105.56127530	     85.07239040	     89.79719836	    -13.43568937	     29.06692064	    114.19398671	     91.57081288
      2.95000000	    -31.57976677	      0.40111479	     -2.42277624	      0.93059789	      0.56487367	     -0.58829345	    102.18149591	     -2.88612555	      3.07417569	    104.17922778	      1.81827054	     34.24352516	     -5.07214810	     -7.49999987	    103.38463550	    -16.54899709	      5.61727311	    102.10675895	      1.78209913	     32.98804258	     -6.21093768	     -7.49999987	    -38.04348591	     -2.03526567	     10.91645188	     97.63775547	    -16.93573892	     30.16939245	    106.33894499	     84.19768210	     92.80670754	    -11.76936910	     30.95762341	    113.09781796	     91.42289265
      2.96666670	    -33.01668719	     -0.01441175	     -2.33288154	      0.92452555	      0.56127324	     -0.58557450	    104.94210918	     -3.06492396	      2.50660528	    105.38698448	      1.83934987	     34.01216567	     -5.00402089	     -7.49999987	    106.46326996	    -16.67381969	      6.30898130	    103.48606204	      1.80617251	     32.14173193	     -6.72356497	     -7.49999987	    -38.58296298	     -1.96409757	     11.21623196	     99.86041970	    -16.64404561	     30.25006247	    106.96881889	     84.17506776	     94.80874600	    -11.95522807	     31.78550063	    113.17474263	     91.73455932
      2.98333330	    -34.36530131	     -0.38269427	     -2.19321478	      0.92681140	      0.56271697	     -0.58560654	    106.98183146	     -3.25993982	      2.08857730	    105.89887658	      1.84828407	     33.60739333	     -4.83393413	     -7.49999987	    108.76138026	    -16.57328119	      6.71150354	    104.11620547	      1.81717059	     31.25220522	     -7.14421406	     -7.49999987	    -39.35072135	     -1.88017610	     12.60044572	    100.88693240	    -18.20231948	     31.78293532	    107.47953842	     84.93215067	     90.40044590	     -7.80223829	     29.67170580	    113.54835344	     93.17397583
      3.00000000	    -35.43070501	     -0.71407636	     -2.00763342	      0.93523908	      0.56220000	     -0.58924142	    108.12466366	     -3.39832575	      1.87772634	    105.96249625	      1.84939444	     33.26179863	     -4.63053478	     -7.49999987	    110.02426676	    -16.31613335	      6.84768361	    104.30577432	      1.82047919	     30.58554975	     -7.47561279	     -7.49999987	    -39.62339607	     -1.76858283	     12.95789355	    100.17472727	    -18.39973723	     30.29814745	    108.25302438	     85.01319843	     90.01504934	     -7.28381535	     29.85429503	    114.75463844	     94.71519963
      3.01666670	    -36.63028919	     -1.03155210	     -1.69689176	      0.92877611	      0.56696583	     -0.59882281	    108.86991135	     -3.77180587	      1.77821790	    105.31318239	      1.83806178	     32.84463315	     -4.44282609	     -7.49999987	    110.90053907	    -15.67001051	      6.72047144	    103.90160951	      1.81342518	     29.74063197	     -8.06232200	     -7.49999987	    -40.23598477	     -1.71101220	     13.44739191	     99.94776571	    -20.81338831	     28.21848462	    107.89746752	     86.37412726	     90.28500222	     -4.22098180	     31.12237242	    111.98601864	     98.54383587
      3.03333330	    -37.66871587	     -1.34770692	     -1.43285296	      0.94555507	      0.57123071	     -0.59285019	    108.94601362	     -3.97935537	      1.73127181	    104.46911542	      1.82333003	     32.66430268	     -4.05942452	     -7.49999987	    111.04501379	    -14.96641553	      6.62773139	    103.18772294	      1.80096551	     29.47388334	     -8.52617889	     -7.49999987	    -40.48949660	     -1.29766926	     13.11668529	     98.57378978	    -19.65923068	     27.01613562	    108.98141125	     88.02183689	     87.18780261	     -4.47697535	     30.67545435	    112.66495507	    102.17942021
      3.05000000	    -37.74418650	     -1.56364979	     -1.27995727	      0.95411817	      0.57864644	     -0.59543111	    107.70428692	     -3.90825975	      1.82641162	    103.48884642	      1.80622111	     32.58593065	     -3.90306794	     -7.49999987	    109.80609070	    -14.30804892	      6.54669444	    102.21722134	      1.78402706	     29.76621287	     -8.80088100	     -7.49999987	    -41.07671445	     -0.99473719	     12.81969313	     97.13074563	    -19.97799829	     26.90316418	    109.19415265	     88.02232073	     85.58011559	     -4.46295935	     30.54363397	    112.50059317	    102.19477237
      3.06666670	    -37.66767719	     -1.49597093	     -1.08910080	      0.96035001	      0.58653261	     -0.59854102	    106.08718190	     -3.77439418	      2.24823469	    102.27657665	      1.78506301	     32.65538313	     -3.82024729	     -7.49999987	    107.96168040	    -13.51935075	      6.22730197	    100.95345492	      1.76197018	     30.02276647	     -9.41117568	     -7.49999987	    -40.88464367	     -0.75216677	     12.47133281	     94.77615899	    -19.51073336	     25.66680435	    103.16048811	     88.92208708	     83.60829302	     -4.03908657	     28.80743955	    109.30435293	    102.61485680
